<svg xmlns="http://www.w3.org/2000/svg" width="16" height="16" viewBox="0 0 16 16">
    <defs>
        <linearGradient id="grad" x1="0%" x2="30%" y1="100%" y2="0%">
            <stop offset="10%" stop-color="#2000CC"/>
            <stop offset="100%" stop-color="#3080FF"/>
        </linearGradient>
        <clipPath id="background">
            <path d="M3,10 C-0.866,10 -4,6.866 -4,3 C-4,-0.866 -0.866,-4 3,-4 C6.866,-4 10,-0.866 10,3 L5.4,3 L3.2,10 Z"/>
        </clipPath>
    </defs>
    <g fill="none" fill-rule="evenodd">
        <path fill="#40B6E0" fill-opacity=".6" d="M8,15 C4.134,15 1,11.866 1,8 C1,4.134 4.134,1 8,1 C11.866,1 15,4.134 15,8 L10.4,8 L8.2,15 Z"/>
        <path fill="#231F20" fill-opacity=".7" d="M5,4.28253174 C4.53,4.74153174 4.028,4.978 3.1,5 C2.061,5.022 1,4.2794 1,3.0004 C1,1.7124 1.971,1 3.1,1 C3.94833171,1 4.54833171,1.18475342 4.9,1.55426025 L5.5162,0.836730957 C4.8293999,0.270175195 4.28826904,0.0004 3.0982,0.0004 C1.3402,0.0004 0.0002,1.3584 0.0002,3.0004 C0.0002,4.6824 1.3642,6.0004 3.0022,6.0004 C4.29284668,6.0004 5.0232,5.5934 5.6162,4.9814 C5.2054,4.51548783 5,4.28253174 5,4.28253174 Z" transform="translate(5 5)" clip-path="url(#background)"/>
        <g transform="translate(9 9)">
            <polygon points="0,7 2.1875,0 4.8,0 7,7 4.375,7 3.5,4.375 2.625,7" fill="url(#grad)"/>
            <polygon points="7,7 4.8125,0 3.5,4.375 4.375,7" fill="#000000" opacity="0.25"/>
        </g>
    </g>
</svg>
