<svg xmlns="http://www.w3.org/2000/svg" width="16" height="16" viewBox="0 0 16 16">
    <defs>
        <linearGradient id="grad" x1="0%" x2="30%" y1="100%" y2="0%">
            <stop offset="10%" stop-color="#2000CC"/>
            <stop offset="100%" stop-color="#3080FF"/>
        </linearGradient>
        <clipPath id="background">
            <path d="M3,10 C-0.866,10 -4,6.866 -4,3 C-4,-0.866 -0.866,-4 3,-4 C6.866,-4 10,-0.866 10,3 L5.4,3 L3.2,10 Z"/>
        </clipPath>
    </defs>
    <g fill="none" fill-rule="evenodd">
        <polygon fill="#9AA7B0" fill-opacity=".8" points="7 1 3 5 7 5"/>
        <polygon fill="#9AA7B0" fill-opacity=".8" points="3,15 3,6 8,6 8,1 13,1 13,8.3 10.6,8.3 8.4,15"/>
        <g transform="translate(9 9)">
            <polygon points="0,7 2.1875,0 4.8,0 7,7 4.375,7 3.5,4.375 2.625,7" fill="url(#grad)"/>
            <polygon points="7,7 4.8125,0 3.5,4.375 4.375,7" fill="#000000" opacity="0.25"/>
        </g>
    </g>
</svg>
