<svg xmlns="http://www.w3.org/2000/svg" width="16" height="16" viewBox="0 0 16 16">
    <defs>
        <mask id="abstractclass-b" fill="#fff">
            <polygon points="4,1 12,1 12,8 10.4,8 8.2,15 4,15"/>
        </mask>
        <linearGradient id="grad" x1="0%" x2="30%" y1="100%" y2="0%">
            <stop offset="10%" stop-color="#2000CC"/>
            <stop offset="100%" stop-color="#3080FF"/>
        </linearGradient>
        <clipPath id="background">
            <path d="M8,15 C4.134,15 1,11.866 1,8 C1,4.134 4.134,1 8,1 C11.866,1 15,4.134 15,8 L10.4,8 L8.2,15 Z"/>
        </clipPath>
    </defs>
    <g fill="none" fill-rule="evenodd">
        <path fill="#9AA7B0" fill-opacity=".8" d="M3 3.1055C1.764 4.3685 1 6.0935 1 8.0005 1 9.9065 1.764 11.6315 3 12.8945L3 3.1055zM15 8L13 8 13 3.1055C14.235892 4.3673897 14.9998665 6.09319831 15 8z"/>
        <g mask="url(#abstractclass-b)">
            <path fill="#40B6E0" fill-opacity=".6" d="M15,8 C15,11.866 11.866,15 8,15 C4.134,15 1,11.866 1,8 C1,4.134 4.134,1 8,1 C11.866,1 15,4.134 15,8"/>
            <path fill="#231F20" fill-opacity=".7" d="M10,9.28253174 C9.53,9.74153174 9.028,9.978 8.1,10 C7.061,10.022 6,9.2794 6,8.0004 C6,6.7124 6.971,6 8.1,6 C8.94833171,6 9.54833171,6.18475342 9.9,6.55426025 L10.5162,5.836730957 C9.8293999,5.270175195 9.28826904,5.0004 8.0982,5.0004 C6.3402,5.0004 5.0002,6.3584 5.0002,8.0004 C5.0002,9.6824 6.3642,11.0004 8.0022,11.0004 C9.29284668,11.0004 10.0232,10.5934 10.6162,9.9814 C10.2054,9.51548783 10,9.28253174 10,9.28253174 Z" clip-path="url(#background)"/>
        </g>
        <g transform="translate(9 9)">
            <polygon points="0,7 2.1875,0 4.8,0 7,7 4.375,7 3.5,4.375 2.625,7" fill="url(#grad)"/>
            <polygon points="7,7 4.8125,0 3.5,4.375 4.375,7" fill="#000000" opacity="0.25"/>
        </g>
    </g>
</svg>
