<svg xmlns="http://www.w3.org/2000/svg" width="16" height="16" viewBox="0 0 16 16">
    <defs>
        <linearGradient id="grad" x1="0%" x2="30%" y1="100%" y2="0%">
            <stop offset="10%" stop-color="#2000CC"/>
            <stop offset="100%" stop-color="#3080FF"/>
        </linearGradient>
        <clipPath id="background">
            <path d="M3,10 C-0.866,10 -4,6.866 -4,3 C-4,-0.866 -0.866,-4 3,-4 C6.866,-4 10,-0.866 10,3 L5.4,3 L3.2,10 Z"/>
        </clipPath>
    </defs>
    <g fill="none" fill-rule="evenodd">
        <path fill="#F4AF3D" fill-opacity=".6" d="M8,15 C4.134,15 1,11.866 1,8 C1,4.134 4.134,1 8,1 C11.866,1 15,4.134 15,8 L10.4,8 L8.2,15 Z"/>
        <path fill="#231F20" fill-opacity=".7" d="M2.99180328,6 C1.2295082,6 0,4.64917127 0,3.01657459 L0,3 C0,1.36740331 1.24590164,0 3.00819672,0 C4.7704918,0 6,1.35082873 6,2.98342541 L6,3 C6,4.63259669 4.75409836,6 2.99180328,6 Z M3.00819672,5.05524862 C4.14754098,5.05524862 4.94262295,4.14364641 4.94262295,3.01657459 L4.94262295,3 C4.94262295,1.87292818 4.13114754,0.944751381 2.99180328,0.944751381 C1.85245902,0.944751381 1.05737705,1.85635359 1.05737705,2.98342541 L1.05737705,3 C1.05737705,4.12707182 1.86885246,5.05524862 3.00819672,5.05524862 Z" transform="translate(5 5)" clip-path="url(#background)"/>
        <g transform="translate(9 9)">
            <polygon points="0,7 2.1875,0 4.8,0 7,7 4.375,7 3.5,4.375 2.625,7" fill="url(#grad)"/>
            <polygon points="7,7 4.8125,0 3.5,4.375 4.375,7" fill="#000000" opacity="0.25"/>
        </g>
    </g>
</svg>
